<svg width="32" height="33" viewBox="0 0 32 33" fill="none" xmlns="http://www.w3.org/2000/svg">
<rect y="0.539062" width="32" height="32" rx="1" fill="white"/>
<path fill-rule="evenodd" clip-rule="evenodd" d="M20.0153 16.3315C20.2812 15.6742 19.7974 14.9566 19.0883 14.9566H18.9047C18.3525 14.9566 17.9047 14.5089 17.9047 13.9566V12.8467C17.9047 12.2644 18.3826 12.3192 18.9714 12.3192H19.0381C19.5904 12.3192 20.0381 11.8715 20.0381 11.3192V10.6819C20.0381 10.1296 19.5904 9.68188 19.0381 9.68188H17.9047C17.0561 9.68188 16.2421 10.0153 15.642 10.6088C15.0419 11.2024 14.7047 12.0074 14.7047 12.8467V13.9566C14.7047 14.5089 14.257 14.9566 13.7047 14.9566H13.5714C13.0191 14.9566 12.5714 15.4043 12.5714 15.9566V16.594C12.5714 17.1463 13.0191 17.594 13.5714 17.594H13.7047C14.257 17.594 14.7047 18.0417 14.7047 18.594V22.3962C14.7047 22.9485 15.1525 23.3962 15.7047 23.3962H16.9047C17.457 23.3962 17.9047 22.9485 17.9047 22.3962V18.5496C17.9047 18.0218 18.3326 17.594 18.8604 17.594C19.2498 17.594 19.6003 17.3577 19.7463 16.9966L20.0153 16.3315Z" fill="#9893A3"/>
</svg>
